<svg id="Capa_1" enable-background="new 0 0 512 512" height="512" viewBox="0 0 512 512" width="512" xmlns="http://www.w3.org/2000/svg"><g><path d="m37.42 195.349c-4.847 14.652-7.42 29.963-7.42 45.651 0 45.358 21.601 88.579 61 122.41v87.59h85.812l12.706-38.118c21.671 5.391 43.972 8.118 66.482 8.118 12.128 0 24.497-.971 38.181-3.023l11.007 33.023h85.812v-66.492c35.543-21.414 62.42-50.579 77.021-83.508h43.979v-120h-44.065c-3.49-7.594-7.901-15.349-13.317-23.415l32.194-96.585h-50.812c-24.971 0-48.54 8.695-67.448 24.695-27.837-12.908-59.345-20.98-91.805-23.461l-10.524-.804-29.094 65.018 43.07 28.713-24.199 36.297v-19.729l-56.964-28.482 24.754-81.403-24.777 5.168c-66.486 13.867-119.568 50.41-147.483 97.497-2.02.979-4.24 1.491-6.53 1.491-8.271 0-15-6.729-15-15s6.729-15 15-15v-30c-24.813 0-45 20.187-45 45 0 22.229 16.205 40.733 37.42 44.349zm142.476-92.272-16.932 55.676 63.036 31.518v100.271l95.802-143.702-46.931-31.287 10.019-22.391c53.058 6.282 83.465 26.559 89.374 29.051 4.158-3.144 22.644-31.213 61.736-31.213h9.188l-23.842 71.528c2.946 4.455 15.66 19.769 22.433 38.558l3.573 9.914h34.648v60h-34.646l-3.574 9.913c-20.857 57.854-79.65 83.72-82.779 86.079v54.008h-34.188l-12.366-37.094c-9.283 1.479-31.901 7.094-58.447 7.094-46.497 0-77.36-12.942-85.809-15.008l-15.003 45.008h-34.188v-71.826c-2.222-2.549-61-40.836-61-108.174 0-60.476 48.161-114.615 119.896-137.923z"/></g></svg>