<svg width="13" height="13" viewBox="0 0 13 13" fill="none" xmlns="http://www.w3.org/2000/svg">
<path d="M10.7656 1.625H8.53125V1.21875C8.53125 0.546736 7.98451 0 7.3125 0H5.6875C5.01549 0 4.46875 0.546736 4.46875 1.21875V1.625H2.23438C1.67436 1.625 1.21875 2.08061 1.21875 2.64062V4.0625C1.21875 4.28685 1.40065 4.46875 1.625 4.46875H1.84702L2.19799 11.8392C2.22899 12.4901 2.76372 13 3.41534 13H9.58466C10.2363 13 10.771 12.4901 10.802 11.8392L11.153 4.46875H11.375C11.5994 4.46875 11.7812 4.28685 11.7812 4.0625V2.64062C11.7812 2.08061 11.3256 1.625 10.7656 1.625ZM5.28125 1.21875C5.28125 0.994754 5.4635 0.8125 5.6875 0.8125H7.3125C7.5365 0.8125 7.71875 0.994754 7.71875 1.21875V1.625H5.28125V1.21875ZM2.03125 2.64062C2.03125 2.52863 2.12238 2.4375 2.23438 2.4375H10.7656C10.8776 2.4375 10.9688 2.52863 10.9688 2.64062V3.65625C10.8435 3.65625 2.55006 3.65625 2.03125 3.65625V2.64062ZM9.99042 11.8006C9.98009 12.0175 9.80185 12.1875 9.58466 12.1875H3.41534C3.19813 12.1875 3.01988 12.0175 3.00958 11.8006L2.66043 4.46875H10.3396L9.99042 11.8006Z" fill="#FF7676"/>
<path d="M6.5 11.375C6.72435 11.375 6.90625 11.1931 6.90625 10.9688V5.6875C6.90625 5.46315 6.72435 5.28125 6.5 5.28125C6.27565 5.28125 6.09375 5.46315 6.09375 5.6875V10.9688C6.09375 11.1931 6.27562 11.375 6.5 11.375Z" fill="#FF7676"/>
<path d="M8.53125 11.375C8.7556 11.375 8.9375 11.1931 8.9375 10.9688V5.6875C8.9375 5.46315 8.7556 5.28125 8.53125 5.28125C8.3069 5.28125 8.125 5.46315 8.125 5.6875V10.9688C8.125 11.1931 8.30687 11.375 8.53125 11.375Z" fill="#FF7676"/>
<path d="M4.46875 11.375C4.6931 11.375 4.875 11.1931 4.875 10.9688V5.6875C4.875 5.46315 4.6931 5.28125 4.46875 5.28125C4.2444 5.28125 4.0625 5.46315 4.0625 5.6875V10.9688C4.0625 11.1931 4.24437 11.375 4.46875 11.375Z" fill="#FF7676"/>
</svg>
